<?xml version="1.0" encoding="UTF-8"?><svg id="Layer_2" xmlns="http://www.w3.org/2000/svg" viewBox="0 0 438.59 45.54"><defs><style>.cls-1{fill:#d4cdba;stroke-width:0px;}</style></defs><g id="Layer_1-2"><path class="cls-1" d="m29.94,34.98H11.4l-3.66,9.66H0L16.56,2.64h8.34l16.56,42h-7.74l-3.78-9.66Zm-2.58-6.6l-6.78-17.46-6.66,17.46h13.44Z"/><path class="cls-1" d="m44.88,1.14h6.9v43.5h-6.9V1.14Z"/><path class="cls-1" d="m56.82,29.94c0-9.24,6.6-15.36,14.58-15.36,9.12,0,14.4,6.48,14.4,15.54,0,.72-.06,1.8-.12,2.22h-21.6c.24,4.38,4.02,7.2,8.28,7.2s7.74-1.14,11.64-3.96v6.3c-2.58,1.86-6.18,3.66-12.06,3.66-8.22,0-15.12-5.4-15.12-15.6Zm21.78-2.76c-.12-3.66-2.58-6.6-7.2-6.6-4.14,0-6.9,3.24-7.14,6.6h14.34Z"/><path class="cls-1" d="m96.54,29.64l-9.78-14.1h8.16l6.48,9.84,6.3-9.84h8.04l-9.6,14.28,10.26,14.82h-8.22l-7.02-10.38-6.9,10.38h-8.16l10.44-15Z"/><path class="cls-1" d="m135.78,2.64h15.12c8.04,0,12.72,4.62,12.72,11.16,0,4.44-2.34,7.62-5.64,9,4.56,1.32,7.08,5.34,7.08,9.96,0,7.08-5.1,11.88-13.26,11.88h-16.02V2.64Zm13.86,17.58c4.02,0,6.48-2.34,6.48-5.88,0-3.24-2.58-5.34-6.48-5.34h-6.72v11.22h6.72Zm1.02,17.94c3.96,0,6.72-2.28,6.72-5.94s-2.34-6-6.72-6h-7.74v11.94h7.74Z"/><path class="cls-1" d="m169.08,4.62c0-2.7,1.98-4.62,4.56-4.62s4.68,1.92,4.68,4.62-1.98,4.5-4.68,4.5-4.56-1.86-4.56-4.5Zm1.2,10.92h6.9v29.1h-6.9V15.54Z"/><path class="cls-1" d="m184.26,15.54h6.78v4.68c1.5-3.54,4.62-5.64,8.34-5.64.72,0,1.68.12,2.1.24v7.2c-.96-.12-1.92-.24-2.88-.24-3.96,0-6.72,2.64-7.44,5.4v17.46h-6.9V15.54Z"/><path class="cls-1" d="m226.08,44.64l-8.7-12.9-4.32,4.14v8.76h-6.9V1.14h6.9v25.8l11.76-11.4h9.24l-11.58,11.22,12,17.88h-8.4Z"/><path class="cls-1" d="m234.12,29.94c0-9.24,6.6-15.36,14.58-15.36,9.12,0,14.4,6.48,14.4,15.54,0,.72-.06,1.8-.12,2.22h-21.6c.24,4.38,4.02,7.2,8.28,7.2s7.74-1.14,11.64-3.96v6.3c-2.58,1.86-6.18,3.66-12.06,3.66-8.22,0-15.12-5.4-15.12-15.6Zm21.78-2.76c-.12-3.66-2.58-6.6-7.2-6.6-4.14,0-6.9,3.24-7.14,6.6h14.34Z"/><path class="cls-1" d="m268.2,15.54h6.78v2.58c1.92-1.92,4.68-3.54,8.46-3.54,5.52,0,10.8,3.78,10.8,10.74v19.32h-6.9v-17.58c0-3.78-2.64-6-5.82-6-2.64,0-4.8,1.32-6.42,3.42v20.16h-6.9V15.54Z"/><path class="cls-1" d="m299.4,43.32v-6.6c3.36,1.68,7.08,2.7,10.02,2.7,3.24,0,5.04-1.14,5.04-3.24,0-1.5-1.08-2.52-3.24-3l-4.14-.84c-4.56-.9-7.74-3.6-7.74-8.52,0-5.28,4.32-9.24,11.46-9.24,3.78,0,7.02.96,9.36,1.98v6.48c-2.94-1.44-6.42-2.34-9.42-2.34-3.18,0-4.62,1.32-4.62,3.06,0,1.32,1.02,2.34,3.12,2.76l3.84.84c5.64,1.2,8.46,4.02,8.46,8.76,0,5.76-4.86,9.42-12.18,9.42-3.78,0-7.5-1.08-9.96-2.22Z"/><path class="cls-1" d="m328.8,36.78v-15.3h-5.04v-5.94h5.4V7.32l6.54-3v11.22h6.84v5.94h-6.84v13.92c0,2.64,1.38,3.9,4.26,3.9.9,0,1.92-.12,2.58-.36v5.94c-.66.24-2.7.66-4.68.66-5.16,0-9.06-2.76-9.06-8.76Z"/><path class="cls-1" d="m345.72,30.06c0-8.76,6.48-15.48,15.6-15.48s15.54,6.72,15.54,15.48-6.42,15.48-15.54,15.48-15.6-6.66-15.6-15.48Zm23.94,0c0-5.76-3.9-8.94-8.34-8.94s-8.4,3.18-8.4,8.94,3.9,9,8.4,9,8.34-3.24,8.34-9Z"/><path class="cls-1" d="m387.12,30.06c0,5.88,4.26,8.88,8.64,8.88,3.3,0,5.88-.84,8.82-2.76v7.32c-2.16,1.02-5.1,2.04-9,2.04-9.06,0-15.72-6.36-15.72-15.48s6.66-15.48,15.72-15.48c3.9,0,6.84,1.02,9,2.04v7.38c-2.94-1.98-5.52-2.76-8.82-2.76-4.38,0-8.64,2.94-8.64,8.82Z"/><path class="cls-1" d="m430.19,44.64l-8.7-12.9-4.32,4.14v8.76h-6.9V1.14h6.9v25.8l11.76-11.4h9.24l-11.58,11.22,12,17.88h-8.4Z"/></g></svg>